<svg id="Layer_1" data-name="Layer 1" xmlns="http://www.w3.org/2000/svg" viewBox="0 0 32 32"><defs><style>.cls-1{opacity:0.98;isolation:isolate;}.cls-2{fill:#868686;}.cls-3{fill:#fff;}</style></defs><title>renbtc</title><g class="cls-1"><path class="cls-2" d="M16,32A16,16,0,1,1,32,16,16,16,0,0,1,16,32Z"/></g><path class="cls-3" d="M16.16,24.08,15,27.2l-1.87-.7,1.17-3.13c-.49-.2-1-.36-1.48-.57-.4,1.05-.78,2.09-1.18,3.14l-1.87-.71c.38-1.05.77-2.08,1.15-3.13L7.06,20.66l.31-.5c.09-.14.2-.27.28-.42s.33-.49.49-.75l.24-.38a.19.19,0,0,1,.13,0l1.24.47a.67.67,0,0,0,.81-.27,1.28,1.28,0,0,0,.11-.27c.37-1,.73-1.95,1.09-2.92s.67-1.75,1-2.62.62-1.64.92-2.46a2,2,0,0,0,.12-.34.94.94,0,0,0-.27-1A1.45,1.45,0,0,0,13,9l-1.26-.47a.13.13,0,0,1-.06-.05l.75-2c.44.14.85.32,1.28.47s.86.32,1.29.48.85.32,1.29.48L17.4,4.8a19.74,19.74,0,0,1,1.88.7L18.12,8.61l1.49.55L20.78,6l1.85.7v0h0v0c-.39,1-.77,2-1.16,3.07.22.08.43.16.64.26a4.09,4.09,0,0,1,.51.26,4.9,4.9,0,0,1,.48.31,5,5,0,0,1,1.25,1.37,4.26,4.26,0,0,1,.53,1.33A3.3,3.3,0,0,1,24.8,15a3.62,3.62,0,0,1-.2.55,3.26,3.26,0,0,1-.47.73,3.47,3.47,0,0,1-.67.6,4.64,4.64,0,0,1-1,.47,3.47,3.47,0,0,1-.46.13c0,.1.12.15.18.21a5.1,5.1,0,0,1,1.08,1.67A3.81,3.81,0,0,1,23.3,22a3.63,3.63,0,0,1-1.63,2,5.31,5.31,0,0,1-1.33.54,5.62,5.62,0,0,1-3.12-.13l-1-.35A.13.13,0,0,0,16.16,24.08Zm-2.52-3.53a4.6,4.6,0,0,0,.54.21l1.28.47.87.32a3.78,3.78,0,0,0,1.6.16,3.08,3.08,0,0,0,.95-.29,1.85,1.85,0,0,0,.56-.44,1.7,1.7,0,0,0,.36-.85,1.76,1.76,0,0,0-.2-1.1,3.17,3.17,0,0,0-1-1.12,4.19,4.19,0,0,0-.9-.51l-.53-.2-1.85-.7s-.1-.06-.18,0Zm2.27-6,.05,0,1.95.72a2.92,2.92,0,0,0,2,.08,1.68,1.68,0,0,0,1.13-1,1.72,1.72,0,0,0,0-1.12,2.55,2.55,0,0,0-.87-1.2,2.92,2.92,0,0,0-.88-.49l-2-.75a.1.1,0,0,0-.09,0Z"/></svg>