<svg width="187" height="40" viewBox="0 0 187 40" fill="none" xmlns="http://www.w3.org/2000/svg">
<path fill-rule="evenodd" clip-rule="evenodd" d="M0 20C0 8.95529 8.92573 0 19.934 0C30.9425 0 39.868 8.95529 39.868 20C39.868 31.0447 30.9422 40 19.934 40C8.92573 40 0 31.0447 0 20ZM22.3206 25.0725L20.8101 26.585H23.8281L22.3206 25.0725ZM25.7287 26.8123C27.2124 28.011 28.8093 28.0379 30.2274 26.7944C31.6634 25.5358 33.0426 24.1878 34.3271 22.7683C35.8733 21.0616 35.9002 19.0617 34.3748 17.3132C33.2604 16.0351 32.0179 14.8617 30.7808 13.6933L30.7798 13.6924L30.7788 13.6915L30.7778 13.6906C30.63 13.551 30.4823 13.4115 30.3349 13.2719C29.7391 12.71 28.9792 12.3962 28.1362 12.3484C27.052 12.2855 26.155 12.7518 25.4104 13.4573C24.2723 14.5337 23.1694 15.6416 22.0652 16.7507L22.0651 16.7508V16.7509H22.0651V16.751H22.065V16.751H22.0649L22.0647 16.7512C21.8047 17.0124 21.5446 17.2736 21.284 17.5345C20.3181 18.5005 19.3553 19.4695 18.3924 20.4385C17.4396 21.3974 16.4868 22.3564 15.531 23.3123L15.3222 23.5219C14.6954 24.1517 14.0698 24.7801 13.4126 25.3749C12.4713 26.2267 11.3987 26.2446 10.4186 25.4466C10.0165 25.1209 9.64085 24.759 9.27746 24.3884C9.07052 24.1773 8.86197 23.9672 8.65325 23.757L8.65319 23.7569L8.65313 23.7568H8.65307L8.65301 23.7567L8.65295 23.7566H8.65289L8.65283 23.7565H8.65277L8.65271 23.7564L8.65265 23.7563H8.65259L8.65253 23.7562H8.65249H8.65247C7.96305 23.0615 7.27192 22.3652 6.63183 21.6267C5.80369 20.6699 5.80667 19.3398 6.64078 18.3953C7.45355 17.4741 8.32128 16.5995 9.18701 15.727L9.18703 15.7269H9.18704H9.18707C9.34946 15.5631 9.51175 15.3996 9.67359 15.2357C10.0013 14.907 10.3619 14.6052 10.7462 14.351C11.5415 13.819 12.3668 13.8578 13.1116 14.4348C13.557 14.7789 13.9662 15.1707 14.3742 15.5614C14.4766 15.6594 14.579 15.7574 14.6817 15.8546C15.0978 16.2483 15.5077 16.6514 15.9237 17.0604V17.0605L15.9238 17.0606H15.9239V17.0607L15.924 17.0608H15.924V17.0609L15.927 17.0637C16.0878 17.2218 16.2494 17.3809 16.4128 17.5405C15.4732 18.4729 14.5477 19.3919 13.6273 20.306L13.6236 20.3096L13.6199 20.3133C12.6513 21.2752 11.6881 22.2318 10.7194 23.193C11.0251 23.5042 11.3038 23.7832 11.5668 24.0466L11.8188 24.299C13.6531 22.4709 15.4836 20.6471 17.3198 18.8178L17.344 18.7937L17.3846 18.7532L17.4084 18.7295L17.4391 18.699L17.4499 18.6882L17.4507 18.6874L17.4512 18.6869C19.5977 16.5485 21.7521 14.4021 23.9294 12.232C23.7302 12.232 23.5407 12.2325 23.3579 12.233C22.9228 12.2342 22.5256 12.2353 22.127 12.229C21.8322 12.223 21.6089 12.3185 21.3943 12.5368C20.5115 13.4245 19.623 14.3053 18.7251 15.1955L18.725 15.1956L18.7221 15.1985C18.312 15.605 17.9 16.0135 17.4855 16.4255C17.47 16.413 17.4519 16.3992 17.4324 16.3844C17.3771 16.3422 17.3096 16.2908 17.2501 16.2311C16.961 15.943 16.6757 15.6511 16.3904 15.3593C15.7997 14.755 15.2095 14.1511 14.5866 13.5827C13.2219 12.3453 11.8605 11.912 10.2993 12.7668C9.62319 13.1373 9.03032 13.6874 8.46721 14.2314L8.29957 14.3939C7.29394 15.3683 6.28363 16.3471 5.37767 17.4119C3.97749 19.0587 4.04604 21.1541 5.48498 22.7563C6.29525 23.656 7.15942 24.511 8.02631 25.3539C8.64605 25.9548 9.27447 26.5586 9.96871 27.0637C10.7999 27.6616 11.7443 27.8677 12.7661 27.539C13.5468 27.288 14.1961 26.8397 14.7682 26.2748C16.2568 24.7944 17.736 23.3072 19.2162 21.8191H19.2163V21.819H19.2164V21.819H19.2165V21.8189H19.2166V21.8188H19.2167V21.8187H19.2168L19.8508 21.1812C20.6672 20.3639 21.4835 19.5449 22.2999 18.7258L22.3028 18.7228C23.0854 17.9377 23.8679 17.1526 24.6505 16.369C24.7555 16.2641 24.8601 16.159 24.9648 16.0539C25.4423 15.5746 25.9196 15.0952 26.423 14.6441C27.3912 13.7804 28.434 13.7744 29.4499 14.5843L29.4789 14.6067C29.5227 14.6405 29.5658 14.6736 29.6049 14.7129C29.9498 15.0615 30.2979 15.4072 30.646 15.7529C31.5098 16.6106 32.3735 17.4684 33.189 18.3716C33.9965 19.2593 34.0323 20.455 33.3351 21.4325C32.9017 22.0455 32.3621 22.5859 31.8275 23.1214L31.7113 23.2378L31.668 23.2814C30.893 24.062 30.1166 24.8439 29.2773 25.5483C28.4757 26.2269 27.43 26.203 26.6436 25.5244C26.1186 25.0726 25.6223 24.5866 25.1261 24.1007L25.1258 24.1003C24.8898 23.8693 24.654 23.6383 24.415 23.411C24.1321 23.1404 23.8468 22.8695 23.5187 22.5581L23.5178 22.5572L23.3812 22.4276L23.3871 22.4216L22.3474 21.4322L15.9957 27.769C16.172 27.769 16.3476 27.7702 16.5227 27.7713H16.5228H16.5229H16.5231H16.5232H16.5233H16.5235H16.5236H16.5237H16.5238H16.524H16.5241H16.5242H16.5243H16.5243H16.5244H16.5245H16.5246H16.5247C16.9792 27.7744 17.4303 27.7773 17.8816 27.7601C18.0425 27.7541 18.242 27.6673 18.3582 27.5507C19.088 26.8333 19.8088 26.107 20.5291 25.3812L20.5293 25.381L20.5308 25.3795L20.5311 25.3792L20.5314 25.379L20.5316 25.3787L20.5318 25.3784L20.5321 25.3781L20.5324 25.3778L20.5327 25.3775L20.533 25.3772L20.5333 25.377L20.5335 25.3768L20.5338 25.3765C20.8324 25.0756 21.1308 24.7749 21.4298 24.4749C21.6732 24.2283 21.9206 23.9853 22.1672 23.7433L22.1673 23.7431L22.3504 23.5632C22.4774 23.6886 22.5994 23.8099 22.7183 23.9284L22.7185 23.9285L22.7192 23.9291L22.7211 23.931L22.7212 23.9311C22.9275 24.1365 23.1249 24.333 23.3246 24.5257C23.561 24.754 23.7936 24.9872 24.0264 25.2206L24.0266 25.2208C24.577 25.7726 25.1279 26.3249 25.7287 26.8123ZM53.0977 19.8779L57.8532 10.4376H54.3708L51.9777 15.9443C51.8556 16.2234 51.7502 16.6082 51.662 17.0987H51.6213C51.438 16.4041 51.3259 16.0056 51.2852 15.9034L48.933 10.4376H45.1755L49.8087 19.9391V25.0885H53.0977V19.8779ZM68.5554 20.7769H61.7532C61.8618 22.2958 62.8156 23.0551 64.6147 23.0551C65.7618 23.0551 66.77 22.7828 67.6391 22.2377V24.5671C66.6751 25.0848 65.4225 25.3437 63.8817 25.3437C62.1981 25.3437 60.8913 24.8754 59.9613 23.9389C59.0311 23.0023 58.5663 21.6964 58.5663 20.0207C58.5663 18.2839 59.0686 16.908 60.0733 15.8932C61.0781 14.8784 62.3136 14.371 63.7798 14.371C65.3005 14.371 66.4767 14.8241 67.3083 15.7297C68.1399 16.6356 68.5557 17.865 68.5557 19.4178V20.7769H68.5554ZM65.5718 18.7948C65.5718 17.2966 64.9674 16.5471 63.7592 16.5471C63.2433 16.5471 62.797 16.7617 62.4201 17.1909C62.0434 17.62 61.8143 18.1549 61.7329 18.7948H65.5718ZM76.1008 25.0882H79.1457V18.8357C79.1457 15.8593 77.659 14.371 74.6855 14.371C74.0473 14.371 73.3397 14.4597 72.5625 14.6367C71.785 14.8138 71.1725 15.0182 70.7243 15.2497V17.6813C71.8444 16.9391 73.0258 16.5678 74.268 16.5678C75.5035 16.5678 76.1212 17.14 76.1212 18.2842L73.2903 18.6622C70.8938 18.9755 69.6958 20.147 69.6958 22.1767C69.6958 23.1369 69.9859 23.905 70.5664 24.4804C71.1467 25.0561 71.9425 25.3437 72.9542 25.3437C74.3256 25.3437 75.3609 24.758 76.0601 23.5865H76.1008V25.0882ZM76.1212 20.133V20.8381C76.1212 21.4784 75.9312 22.0079 75.5509 22.4266C75.1707 22.8455 74.6786 23.0549 74.0745 23.0549C73.64 23.0549 73.2955 22.9375 73.0409 22.7025C72.7863 22.4675 72.6592 22.1662 72.6592 21.7984C72.6592 20.9879 73.1817 20.5147 74.2272 20.3783L76.1212 20.133ZM88.4935 17.538C88.1065 17.3269 87.655 17.2212 87.1392 17.2212C86.44 17.2212 85.8934 17.4784 85.4999 17.9926C85.1062 18.507 84.9092 19.2068 84.9092 20.0922V25.0882H81.6916V14.6264H84.9092V16.5675H84.9499C85.4591 15.151 86.3755 14.4425 87.6994 14.4425C88.0387 14.4425 88.3035 14.4833 88.4938 14.5651V17.538H88.4935ZM96.8537 25.0882H100.061V18.6824C100.061 15.8082 98.9069 14.371 96.5983 14.371C95.1327 14.371 94.0156 15.008 93.2486 16.2814H93.2079V14.6265H89.9899V25.0882H93.2079V19.1218C93.2079 18.4613 93.3877 17.9163 93.7477 17.4871C94.1073 17.058 94.5656 16.8434 95.1222 16.8434C96.2765 16.8434 96.8537 17.6542 96.8537 19.275V25.0882ZM115.763 25.0882H112.179L111.141 21.829H105.947L104.918 25.0882H101.354L106.67 10.4376H110.57L115.763 25.0882ZM110.387 19.2952L108.819 14.3708C108.703 14.0029 108.621 13.5635 108.574 13.0529H108.492C108.459 13.482 108.374 13.9077 108.238 14.3299L106.65 19.2952H110.387ZM125.814 28.4033C126.934 27.3374 127.494 25.8339 127.494 23.8928V14.6265H124.276V15.8421H124.236C123.604 14.8614 122.654 14.371 121.385 14.371C119.966 14.371 118.822 14.8918 117.953 15.9341C117.084 16.976 116.65 18.3826 116.65 20.1535C116.65 21.7338 117.04 22.9936 117.82 23.9336C118.602 24.8734 119.657 25.3434 120.988 25.3434C122.42 25.3434 123.503 24.7578 124.236 23.5862H124.277V24.4138C124.277 25.4012 123.978 26.1828 123.381 26.7585C122.783 27.3339 121.941 27.6217 120.855 27.6217C119.762 27.6217 118.68 27.3082 117.607 26.6817V29.3994C118.428 29.8014 119.541 30.0023 120.946 30.0023C123.072 30.0023 124.694 29.4691 125.814 28.4033ZM124.317 19.2339V20.0615C124.317 20.9062 124.112 21.5855 123.701 22.0999C123.29 22.6143 122.753 22.8712 122.087 22.8712C121.415 22.8712 120.886 22.6175 120.498 22.1101C120.112 21.6027 119.918 20.9131 119.918 20.0411C119.918 19.0263 120.121 18.2395 120.53 17.681C120.937 17.1226 121.497 16.8432 122.21 16.8432C122.833 16.8432 123.341 17.0765 123.731 17.543C124.121 18.0098 124.317 18.5732 124.317 19.2339ZM140.253 25.0882H137.045V19.275C137.045 17.6542 136.469 16.8434 135.315 16.8434C134.758 16.8434 134.3 17.058 133.94 17.4871C133.581 17.9163 133.4 18.4613 133.4 19.1218V25.0882H130.182V14.6265H133.4V16.2814H133.441C134.208 15.008 135.325 14.371 136.791 14.371C139.1 14.371 140.253 15.8082 140.253 18.6824V25.0882ZM143.67 23.8775C144.664 24.855 146.031 25.3436 147.769 25.3436C149.534 25.3436 150.923 24.8395 151.939 23.8314C152.953 22.8236 153.461 21.451 153.461 19.7142C153.461 18.1067 152.969 16.8143 151.984 15.8369C151 14.8594 149.642 14.3708 147.911 14.3708C146.153 14.3708 144.758 14.8597 143.726 15.8369C142.694 16.8143 142.178 18.168 142.178 19.8981C142.178 21.5738 142.675 22.9004 143.67 23.8775ZM146.078 17.6302C146.499 17.1056 147.089 16.8434 147.85 16.8434C149.404 16.8434 150.182 17.8209 150.182 19.7757C150.182 21.8394 149.411 22.8714 147.87 22.8714C146.255 22.8714 145.447 21.8669 145.447 19.8574C145.447 18.897 145.657 18.1548 146.078 17.6302ZM154.865 24.8124V22.1969C155.395 22.517 155.923 22.7553 156.45 22.9121C156.976 23.0689 157.473 23.147 157.941 23.147C158.511 23.147 158.961 23.0689 159.29 22.9121C159.619 22.7556 159.784 22.517 159.784 22.1969C159.784 21.9925 159.709 21.8223 159.56 21.6859C159.41 21.5499 159.219 21.4305 158.985 21.3283C158.751 21.2262 158.494 21.1342 158.215 21.0525C157.937 20.9707 157.669 20.8788 157.411 20.7766C156.997 20.6201 156.633 20.4513 156.317 20.271C156.001 20.0905 155.736 19.8811 155.522 19.6427C155.309 19.4044 155.145 19.1285 155.033 18.815C154.921 18.5017 154.865 18.1304 154.865 17.7015C154.865 17.1158 154.993 16.6119 155.247 16.1895C155.502 15.7673 155.841 15.4217 156.266 15.1526C156.69 14.8836 157.175 14.686 157.722 14.5599C158.268 14.434 158.836 14.371 159.427 14.371C159.889 14.371 160.358 14.4067 160.832 14.4782C161.307 14.5497 161.776 14.6536 162.237 14.7897V17.2826C161.83 17.0443 161.394 16.8654 160.929 16.7463C160.464 16.6271 160.007 16.5676 159.559 16.5676C159.349 16.5676 159.15 16.5865 158.963 16.6236C158.777 16.661 158.612 16.7156 158.47 16.7871C158.327 16.8587 158.215 16.9506 158.134 17.063C158.052 17.1754 158.011 17.303 158.011 17.4461C158.011 17.6367 158.072 17.8002 158.194 17.9365C158.317 18.0729 158.476 18.1902 158.673 18.2889C158.87 18.3876 159.089 18.4763 159.331 18.5546C159.571 18.6329 159.81 18.7129 160.048 18.7946C160.475 18.9444 160.863 19.1078 161.209 19.285C161.555 19.4622 161.852 19.6698 162.101 19.9083C162.347 20.1468 162.538 20.4259 162.67 20.7462C162.803 21.0664 162.868 21.4477 162.868 21.8903C162.868 22.5101 162.735 23.0397 162.467 23.479C162.198 23.9184 161.842 24.276 161.397 24.5519C160.953 24.8278 160.44 25.0287 159.859 25.1548C159.279 25.2807 158.677 25.3437 158.052 25.3437C156.906 25.3437 155.843 25.1665 154.865 24.8124ZM168.877 25.3436C169.835 25.3436 170.551 25.2175 171.026 24.9656V22.5749C170.666 22.7725 170.317 22.8711 169.977 22.8711C169.115 22.8711 168.684 22.3264 168.684 21.2366V17.007H171.026V14.6264H168.684V11.449L165.477 12.3685V14.6264H163.786V17.007H165.477V21.7986C165.477 24.1621 166.61 25.3436 168.877 25.3436ZM174.468 12.9711C173.925 12.9711 173.48 12.8093 173.134 12.4859C172.788 12.1624 172.615 11.7656 172.615 11.2956C172.615 10.8122 172.788 10.4169 173.134 10.1106C173.481 9.8041 173.925 9.65086 174.468 9.65086C175.018 9.65086 175.464 9.8041 175.808 10.1106C176.15 10.4171 176.321 10.8122 176.321 11.2956C176.321 11.7861 176.15 12.1881 175.808 12.501C175.464 12.8146 175.018 12.9711 174.468 12.9711ZM176.056 25.0882H172.838V14.6264H176.056V25.0882ZM183.521 25.3437C184.892 25.3437 185.941 25.1324 186.668 24.7102V22.1149C185.9 22.619 185.117 22.871 184.316 22.871C183.413 22.871 182.703 22.607 182.187 22.0792C181.671 21.5516 181.413 20.8244 181.413 19.8981C181.413 18.9446 181.683 18.1971 182.222 17.6556C182.763 17.1141 183.494 16.8434 184.417 16.8434C185.246 16.8434 185.996 17.0956 186.668 17.5995V14.8614C186.117 14.5345 185.228 14.371 183.999 14.371C182.222 14.371 180.801 14.8836 179.738 15.9087C178.676 16.9339 178.145 18.3352 178.145 20.1129C178.145 21.6523 178.64 22.9089 179.631 23.8828C180.622 24.8567 181.919 25.3437 183.521 25.3437Z" fill="url(#paint0_linear)"/>
<defs>
<linearGradient id="paint0_linear" x1="93.3339" y1="0" x2="93.3339" y2="40" gradientUnits="userSpaceOnUse">
<stop stop-color="#C37CFF"/>
<stop offset="1" stop-color="#6E14CC"/>
</linearGradient>
</defs>
</svg>
