<svg width="24" height="24" viewBox="0 0 24 24" fill="none" xmlns="http://www.w3.org/2000/svg">
<path d="M12 0C8.6875 0 5.85938 1.17188 3.51562 3.51562C1.17188 5.85938 0 8.6875 0 12C0 15.125 1.05469 17.8281 3.16406 20.1094C5.27344 22.3906 7.89062 23.6562 11.0156 23.9062V24H12.9844V23.9062C15.8906 23.6562 18.3828 22.5 20.4609 20.4375C22.5391 18.375 23.6875 15.8906 23.9062 12.9844H24V11.0156H23.9062C23.6562 7.89062 22.3906 5.27344 20.1094 3.16406C17.8281 1.05469 15.125 0 12 0ZM12.9844 2.10938C14.9219 2.29688 16.6875 3.03125 18.2812 4.3125L16.2188 6.42188C15.3125 5.73438 14.2344 5.29688 12.9844 5.10938V2.10938ZM11.0156 2.10938V5.10938C9.92188 5.20312 8.84375 5.64062 7.78125 6.42188L5.71875 4.3125C7.1875 3.03125 8.95312 2.29688 11.0156 2.10938ZM4.3125 5.71875L6.42188 7.78125C5.64062 8.84375 5.20312 9.92188 5.10938 11.0156H2.10938C2.20312 9.04688 2.9375 7.28125 4.3125 5.71875ZM2.10938 12.9844H5.10938C5.29688 14.0156 5.6875 15.0156 6.28125 15.9844L3.89062 17.8125C2.79688 16.25 2.20312 14.6406 2.10938 12.9844ZM11.0156 21.8906C8.89062 21.7031 6.95312 20.8438 5.20312 19.3125L7.59375 17.4844C8.53125 18.2344 9.64062 18.7031 10.9219 18.8906V21.8906H11.0156ZM12 17.0156C10.5938 17.0156 9.40625 16.5312 8.4375 15.5625C7.46875 14.5938 6.98438 13.4062 6.98438 12C6.98438 10.5938 7.46875 9.40625 8.4375 8.4375C9.40625 7.46875 10.5938 6.98438 12 6.98438C13.4062 6.98438 14.5938 7.46875 15.5625 8.4375C16.5312 9.40625 17.0156 10.5938 17.0156 12C17.0156 13.4062 16.5312 14.5938 15.5625 15.5625C14.5938 16.5312 13.4062 17.0156 12 17.0156ZM12.9844 21.8906V18.8906C14.7969 18.7031 16.2344 17.9062 17.2969 16.5L19.6875 18.2812C17.9375 20.5 15.7031 21.7031 12.9844 21.8906ZM20.9062 16.5938L18.5156 14.8125C18.7656 14 18.9219 13.3906 18.9844 12.9844H21.9844C21.7969 14.2656 21.4375 15.4688 20.9062 16.5938ZM18.8906 11.0156C18.7031 9.76562 18.2656 8.6875 17.5781 7.78125L19.6875 5.71875C20.9688 7.3125 21.7031 9.07812 21.8906 11.0156H18.8906ZM14.0156 12C14.0156 12.5625 13.8203 13.0391 13.4297 13.4297C13.0391 13.8203 12.5625 14.0156 12 14.0156C11.4375 14.0156 10.9609 13.8203 10.5703 13.4297C10.1797 13.0391 9.98438 12.5625 9.98438 12C9.98438 11.4375 10.1797 10.9609 10.5703 10.5703C10.9609 10.1797 11.4375 9.98438 12 9.98438C12.5625 9.98438 13.0391 10.1797 13.4297 10.5703C13.8203 10.9609 14.0156 11.4375 14.0156 12Z" fill="url(#paint0_linear)"/>
<defs>
<linearGradient id="paint0_linear" x1="0" y1="12" x2="24" y2="12" gradientUnits="userSpaceOnUse">
<stop stop-color="#ffa500"/>
<stop offset="1" stop-color="#af4aff"/>
</linearGradient>
</defs>
</svg>
