<svg width="111" height="100" viewBox="0 0 111 100" fill="none" xmlns="http://www.w3.org/2000/svg">
<path d="M69.5088 0C68.7657 0 68.0101 0.201512 67.3174 0.667507L22.67 29.8489H2.01511C0.906801 29.8489 0 30.7557 0 31.864V68.136C0 69.2443 0.906801 70.1511 2.01511 70.1511H22.67L67.3174 99.3325C68.0101 99.7859 68.7783 100 69.5088 100C71.6121 100 73.5516 98.3249 73.5516 95.9572V4.04282C73.5516 1.67506 71.6121 0 69.5088 0ZM64.4836 86.6499L27.6322 62.5567L25.3652 61.0831H9.06801V38.9169H25.3652L27.6196 37.4433L64.4836 13.3501V86.6499ZM108.312 45.466H92.1914C91.0831 45.466 90.1763 46.3728 90.1763 47.4811V52.5189C90.1763 53.6272 91.0831 54.534 92.1914 54.534H108.312C109.421 54.534 110.327 53.6272 110.327 52.5189V47.4811C110.327 46.3728 109.421 45.466 108.312 45.466ZM103.035 78.4383L89.1436 70.4156C88.9153 70.2849 88.6636 70.2005 88.4027 70.1671C88.1418 70.1337 87.877 70.1521 87.6232 70.2211C87.3694 70.2901 87.1317 70.4084 86.9236 70.5693C86.7156 70.7301 86.5412 70.9304 86.4106 71.1587L83.9043 75.5038C83.3501 76.461 83.6776 77.6952 84.6348 78.2494L98.5264 86.272C98.7547 86.4027 99.0064 86.4872 99.2673 86.5205C99.5282 86.5539 99.7931 86.5356 100.047 86.4666C100.301 86.3976 100.538 86.2793 100.746 86.1184C100.954 85.9575 101.129 85.7572 101.259 85.529L103.766 81.1839C104.32 80.2267 103.98 78.9924 103.035 78.4383ZM86.398 28.8413C86.5286 29.0696 86.703 29.2699 86.911 29.4307C87.1191 29.5916 87.3568 29.7099 87.6106 29.7789C87.8644 29.8479 88.1293 29.8663 88.3901 29.8329C88.651 29.7995 88.9027 29.7151 89.131 29.5844L103.023 21.5617C103.98 21.0076 104.307 19.7733 103.753 18.8161L101.259 14.4836C101.129 14.2554 100.954 14.0551 100.746 13.8942C100.538 13.7333 100.301 13.615 100.047 13.546C99.7931 13.477 99.5282 13.4587 99.2673 13.4921C99.0064 13.5254 98.7547 13.6099 98.5264 13.7406L84.6348 21.7632C84.1748 22.0314 83.8397 22.4707 83.7028 22.9853C83.5659 23.4998 83.6384 24.0476 83.9043 24.5088L86.398 28.8413Z" fill="url(#paint0_linear)"/>
<defs>
<linearGradient id="paint0_linear" x1="0" y1="50" x2="110.327" y2="50" gradientUnits="userSpaceOnUse">
<stop stop-color="#ffa500"/>
<stop offset="1" stop-color="#af4aff"/>
</linearGradient>
</defs>
</svg>
