<svg width="100" height="100" viewBox="0 0 100 100" fill="none" xmlns="http://www.w3.org/2000/svg">
<path d="M89.9969 50.6835H49.3165V10.0031C49.3165 9.50312 48.9074 9.09404 48.4075 9.09404H45.453C39.4839 9.08427 33.5718 10.2549 28.0567 12.5385C22.5417 14.8221 17.5327 18.1737 13.3178 22.4004C9.1669 26.5384 5.85952 31.4435 3.57949 36.8431C1.2069 42.4433 -0.010559 48.4649 6.89877e-05 54.547C-0.00970548 60.5161 1.16089 66.4282 3.44452 71.9433C5.72814 77.4583 9.07972 82.4673 13.3064 86.6822C17.4767 90.8525 22.3402 94.1365 27.7491 96.4205C33.3493 98.7931 39.3709 100.011 45.453 99.9999C51.4221 100.01 57.3343 98.8391 62.8493 96.5555C68.3643 94.2719 73.3733 90.9203 77.5882 86.6936C81.7586 82.5233 85.0425 77.6598 87.3265 72.2509C89.6991 66.6507 90.9166 60.6291 90.906 54.547V51.5925C90.906 51.0926 90.4969 50.6835 89.9969 50.6835ZM72.0089 81.3415C68.4902 84.8327 64.3173 87.5954 59.7292 89.4712C55.1411 91.347 50.2279 92.2991 45.2712 92.2729C35.2602 92.2275 25.8514 88.3072 18.7721 81.2279C11.6474 74.1031 7.72707 64.6262 7.72707 54.547C7.72707 44.4678 11.6474 34.9909 18.7721 27.8661C24.9765 21.6618 32.9648 17.8778 41.5895 17.0142V58.4105H82.9858C82.1108 67.0806 78.2928 75.1144 72.0089 81.3415ZM99.9965 44.3655L99.7011 41.1611C98.7352 30.6956 94.0877 20.8209 86.6107 13.3666C79.1285 5.89866 69.274 1.27688 58.748 0.298895L55.5322 0.00345132C54.9981 -0.0420016 54.5436 0.367075 54.5436 0.901147V44.5473C54.5436 45.0473 54.9527 45.4564 55.4527 45.4564L99.0875 45.3428C99.6216 45.3428 100.042 44.8882 99.9965 44.3655ZM62.2479 37.7521V8.59406C69.406 10.0923 75.9749 13.6373 81.1563 18.7982C86.3493 23.9799 89.906 30.5706 91.3832 37.6726L62.2479 37.7521Z" fill="url(#paint0_linear)"/>
<defs>
<linearGradient id="paint0_linear" x1="0" y1="50" x2="99.9999" y2="50" gradientUnits="userSpaceOnUse">
<stop stop-color="#ffa500"/>
<stop offset="1" stop-color="#af4aff"/>
</linearGradient>
</defs>
</svg>
