<svg width="100" height="100" viewBox="0 0 100 100" fill="none" xmlns="http://www.w3.org/2000/svg">
<path fill-rule="evenodd" clip-rule="evenodd" d="M0 0H6.25V93.75H100V100H6.25H0V0ZM87.5 29.9972L62.7557 60.9375L43.7495 41.9187L20.962 64.7125L16.537 60.2875L43.7495 33.0812L62.2432 51.5625L83.4909 25H65.625C64.7962 25 64.0013 24.6708 63.4153 24.0847C62.8292 23.4987 62.5 22.7038 62.5 21.875C62.5 21.0462 62.8292 20.2513 63.4153 19.6653C64.0013 19.0792 64.7962 18.75 65.625 18.75H90.625C91.4538 18.75 92.2487 19.0792 92.8347 19.6653C93.4208 20.2513 93.75 21.0462 93.75 21.875V46.875C93.75 47.7038 93.4208 48.4987 92.8347 49.0847C92.2487 49.6708 91.4538 50 90.625 50C89.7962 50 89.0013 49.6708 88.4153 49.0847C87.8292 48.4987 87.5 47.7038 87.5 46.875V29.9972Z" fill="url(#paint0_linear)"/>
<defs>
<linearGradient id="paint0_linear" x1="0" y1="50" x2="100" y2="50" gradientUnits="userSpaceOnUse">
<stop stop-color="#ffa500"/>
<stop offset="1" stop-color="#af4aff"/>
</linearGradient>
</defs>
</svg>
