<svg width="16" height="14" viewBox="0 0 16 14" fill="none" xmlns="http://www.w3.org/2000/svg">
<path d="M14.7233 2.02784L16 0.774368V0.5H11.5773L8.42533 8.55179L4.83933 0.5H0.202V0.774368L1.69333 2.61695C1.83867 2.75311 1.91467 2.95221 1.89533 3.15268V10.3937C1.94133 10.6544 1.85867 10.9226 1.68 11.1121L0 13.2017V13.4726H4.76333V13.1983L3.08333 11.1121C2.90133 10.9219 2.81533 10.6585 2.852 10.3937V4.13042L7.03333 13.4761H7.51933L11.1147 4.13042V11.5753C11.1147 11.7717 11.1147 11.8121 10.9893 11.9407L9.696 13.2249V13.5H15.9707V13.2256L14.724 11.9728C14.6147 11.888 14.558 11.7457 14.5813 11.6075V2.39321C14.558 2.25432 14.614 2.112 14.7233 2.02784Z" fill="white"/>
</svg>
