<?xml version="1.0" encoding="UTF-8" standalone="no"?>
<svg
   width="19"
   height="18"
   viewBox="0 0 19 18"
   fill="none"
   version="1.1"
   id="svg833"
   sodipodi:docname="moon.svg"
   inkscape:version="1.1 (c4e8f9e, 2021-05-24)"
   xmlns:inkscape="http://www.inkscape.org/namespaces/inkscape"
   xmlns:sodipodi="http://sodipodi.sourceforge.net/DTD/sodipodi-0.dtd"
   xmlns="http://www.w3.org/2000/svg"
   xmlns:svg="http://www.w3.org/2000/svg">
  <sodipodi:namedview
     id="namedview835"
     pagecolor="#ffffff"
     bordercolor="#666666"
     borderopacity="1.0"
     inkscape:pageshadow="2"
     inkscape:pageopacity="0.0"
     inkscape:pagecheckerboard="0"
     showgrid="false"
     inkscape:zoom="49.944444"
     inkscape:cx="5.5461624"
     inkscape:cy="9.240267"
     inkscape:window-width="1315"
     inkscape:window-height="1081"
     inkscape:window-x="0"
     inkscape:window-y="25"
     inkscape:window-maximized="0"
     inkscape:current-layer="svg833" />
  <g
     clip-path="url(#clip0)"
     id="g826"
     style="fill:#808080">
    <path
       d="M18.7531 11.6548C18.6346 11.3656 18.3555 11.1907 18.0602 11.1904C18.0587 11.1904 18.0572 11.19 18.0557 11.19C18.0508 11.19 18.0467 11.1919 18.0418 11.1922C17.9841 11.1937 17.9263 11.2031 17.8689 11.2185C17.8475 11.2241 17.8273 11.2298 17.8066 11.2369C17.7961 11.2406 17.7852 11.2421 17.7744 11.2463C16.8331 11.633 15.8334 11.8292 14.8021 11.8292C10.4891 11.8292 6.97995 8.32013 6.97995 4.0071C6.97995 2.97582 7.17578 1.97606 7.56293 1.03483C7.56855 1.0217 7.57043 1.00782 7.57493 0.994311C7.58056 0.977804 7.58544 0.961298 7.58994 0.944041C7.60682 0.882142 7.61732 0.819869 7.61807 0.757595C7.61807 0.754969 7.6192 0.752342 7.6192 0.749341C7.6192 0.748591 7.61882 0.747466 7.61882 0.746715C7.61882 0.701698 7.61357 0.657431 7.60532 0.613914C7.60344 0.604536 7.60194 0.595157 7.60007 0.585778C7.59031 0.542637 7.57793 0.49987 7.56068 0.459355C7.55392 0.443599 7.54455 0.430093 7.53704 0.415088C7.45864 0.258652 7.32884 0.126977 7.15402 0.0553241C6.94957 -0.0283332 6.73086 -0.0133274 6.54629 0.0748316C6.54441 0.0755819 6.54216 0.075957 6.54028 0.0770824C5.41898 0.538135 4.40684 1.2149 3.532 2.08973C-0.0990261 5.72526 -0.0990263 11.6405 3.53237 15.2768C5.35032 17.0925 7.73774 18 10.1255 18C12.5133 18 14.9011 17.0921 16.7195 15.2764C17.5913 14.4042 18.2669 13.3955 18.728 12.2779C18.7302 12.2738 18.731 12.2689 18.7329 12.2644C18.7542 12.2198 18.7715 12.1732 18.7839 12.1248C18.7846 12.1211 18.7861 12.1177 18.7873 12.114C18.8229 11.9662 18.8154 11.8063 18.7531 11.6548ZM15.6593 14.2155C12.6082 17.2621 7.64433 17.2621 4.59403 14.2155C1.54711 11.1649 1.54711 6.20094 4.59366 3.15064C4.91928 2.82502 5.27117 2.53803 5.63994 2.27956C5.53415 2.84527 5.47937 3.42187 5.47937 4.00747C5.47937 9.14808 9.66149 13.3302 14.8021 13.3302C15.3873 13.3302 15.9643 13.2754 16.53 13.1696C16.2712 13.538 15.9849 13.8899 15.6593 14.2155Z"
       fill="#E5E5E5"
       id="path824"
       style="fill:#808080" />
  </g>
  <defs
     id="defs831">
    <clipPath
       id="clip0">
      <rect
         width="18"
         height="18"
         fill="white"
         transform="translate(0.808594)"
         id="rect828" />
    </clipPath>
  </defs>
</svg>
