<svg width="20" height="20" viewBox="0 0 20 20" fill="none" xmlns="http://www.w3.org/2000/svg">
<path d="M4.73252 3.60095L5.793 4.66142C6.10539 4.97381 6.1054 5.48018 5.79305 5.79259C5.63701 5.94903 5.43209 6.02703 5.2274 6.02703C5.0227 6.02703 4.81779 5.94903 4.66175 5.79259L3.60129 4.73213C3.2889 4.41974 3.28889 3.91335 3.60127 3.60095H4.73252ZM4.73252 3.60095L4.7325 3.60093C4.42048 3.28853 3.91332 3.28853 3.60129 3.60093L4.73252 3.60095Z" fill="#7C7C7C" stroke="#7C7C7C" stroke-width="0.1"/>
<path d="M3.25 9.2H1.75C1.30839 9.2 0.95 9.55839 0.95 10C0.95 10.4416 1.30839 10.8 1.75 10.8H3.25C3.69161 10.8 4.05 10.4416 4.05 10C4.05 9.55839 3.69161 9.2 3.25 9.2Z" fill="#7C7C7C" stroke="#7C7C7C" stroke-width="0.1"/>
<path d="M4.66179 14.2074C4.97382 13.895 5.48098 13.895 5.793 14.2074H4.66179ZM4.66179 14.2074L4.69715 14.2427C4.98965 13.9499 5.46515 13.9499 5.75765 14.2427C6.05052 14.5356 6.05052 15.0104 5.75765 15.3032L4.69715 16.3637L4.66179 14.2074ZM4.66179 14.2074L4.66177 14.2074M4.66179 14.2074L4.66177 14.2074M4.66177 14.2074L3.60129 15.2679C3.2889 15.5803 3.28889 16.0867 3.60127 16.3991M4.66177 14.2074H5.79302C6.1054 14.5198 6.10539 15.0262 5.793 15.3386L4.73255 16.399C4.57651 16.5555 4.37159 16.6335 4.1669 16.6335C3.96222 16.6335 3.75731 16.5555 3.60127 16.3991M3.60127 16.3991C3.60126 16.3991 3.60126 16.399 3.60125 16.399L3.63665 16.3637L3.60129 16.3991C3.60129 16.3991 3.60128 16.3991 3.60127 16.3991Z" fill="#7C7C7C" stroke="#7C7C7C" stroke-width="0.1"/>
<path d="M10 15.95C9.55839 15.95 9.2 16.3084 9.2 16.75V18.25C9.2 18.6916 9.55839 19.05 10 19.05C10.4416 19.05 10.8 18.6916 10.8 18.25V16.75C10.8 16.3084 10.4416 15.95 10 15.95Z" fill="#7C7C7C" stroke="#7C7C7C" stroke-width="0.1"/>
<path d="M16.3992 15.2679L15.3387 14.2074H14.2075C13.8951 14.5198 13.8951 15.0262 14.2075 15.3386L15.2679 16.399C15.424 16.5555 15.6289 16.6335 15.8336 16.6335C16.0383 16.6335 16.2432 16.5555 16.3992 16.399C16.7116 16.0866 16.7116 15.5803 16.3992 15.2679ZM15.3387 14.2074C15.0267 13.895 14.5195 13.895 14.2075 14.2074L15.3387 14.2074Z" fill="#7C7C7C" stroke="#7C7C7C" stroke-width="0.1"/>
<path d="M18.25 9.2H16.75C16.3084 9.2 15.95 9.55839 15.95 10C15.95 10.4416 16.3084 10.8 16.75 10.8H18.25C18.6916 10.8 19.05 10.4416 19.05 10C19.05 9.55839 18.6916 9.2 18.25 9.2Z" fill="#7C7C7C" stroke="#7C7C7C" stroke-width="0.1"/>
<path d="M16.3992 3.60095C16.0872 3.28852 15.58 3.28852 15.268 3.60095M16.3992 3.60095L16.3639 3.63627L16.3992 3.60093C16.3992 3.60093 16.3992 3.60094 16.3992 3.60095ZM16.3992 3.60095C16.7116 3.91335 16.7116 4.41974 16.3992 4.73213L15.3387 5.79259M15.268 3.60095L15.3033 3.63628C15.5958 3.34341 16.0713 3.34341 16.3638 3.63628C16.6567 3.92916 16.6567 4.40391 16.3638 4.69678L15.3033 5.75728M15.268 3.60095L14.2075 4.66142C13.8951 4.97382 13.8951 5.48021 14.2075 5.79261M15.268 3.60095L15.3033 5.75728M15.3387 5.79259L15.3033 5.75728M15.3387 5.79259C15.1827 5.94903 14.9778 6.02703 14.7731 6.02703C14.5684 6.02703 14.3635 5.94903 14.2075 5.79261M15.3387 5.79259L15.3387 5.79263L15.3033 5.75728M14.2075 5.79261C14.2075 5.7926 14.2075 5.79259 14.2074 5.79259L14.2428 5.75728L14.2075 5.79263C14.2075 5.79262 14.2075 5.79262 14.2075 5.79261Z" fill="#7C7C7C" stroke="#7C7C7C" stroke-width="0.1"/>
<path d="M10 0.95C9.55839 0.95 9.2 1.30839 9.2 1.75V3.25C9.2 3.69161 9.55839 4.05 10 4.05C10.4416 4.05 10.8 3.69161 10.8 3.25V1.75C10.8 1.30839 10.4416 0.95 10 0.95Z" fill="#7C7C7C" stroke="#7C7C7C" stroke-width="0.1"/>
<path d="M10 5.075C7.28439 5.075 5.075 7.28439 5.075 10C5.075 12.7156 7.28439 14.925 10 14.925C12.7156 14.925 14.925 12.7156 14.925 10C14.925 7.28439 12.7156 5.075 10 5.075ZM10 13.325C8.16686 13.325 6.675 11.8331 6.675 10C6.675 8.16686 8.16686 6.675 10 6.675C11.8331 6.675 13.325 8.16686 13.325 10C13.325 11.8331 11.8331 13.325 10 13.325Z" fill="#7C7C7C" stroke="#7C7C7C" stroke-width="0.1"/>
</svg>
