<svg width="24" height="24" viewBox="0 0 24 24" fill="none" xmlns="http://www.w3.org/2000/svg">
<path d="M5.70595 1.50001C5.67484 1.49972 5.64415 1.50718 5.61665 1.52171C5.58914 1.53624 5.56568 1.55738 5.54839 1.58324C5.53109 1.60909 5.5205 1.63884 5.51756 1.66981C5.51463 1.70078 5.51944 1.73199 5.53157 1.76063L5.63939 2.01516L7.5472 6.4636C7.56016 6.49386 7.58087 6.52017 7.60722 6.53988C7.63358 6.5596 7.66467 6.57203 7.69735 6.57593C7.73004 6.57983 7.76317 6.57505 7.79343 6.56208C7.82368 6.54911 7.84999 6.5284 7.8697 6.50204L11.3909 1.80001C11.4118 1.77215 11.4246 1.73903 11.4277 1.70435C11.4308 1.66967 11.4242 1.6348 11.4087 1.60366C11.3931 1.57251 11.3691 1.54632 11.3395 1.52801C11.3099 1.5097 11.2758 1.50001 11.2409 1.50001H5.70595Z" fill="#F7E041"/>
<path d="M19.6839 2.72158L17.7489 7.23892C17.7368 7.26744 17.7319 7.29854 17.7346 7.32942C17.7374 7.3603 17.7479 7.39001 17.7649 7.41588C17.782 7.44175 17.8053 7.46298 17.8326 7.47766C17.8599 7.49234 17.8904 7.50003 17.9214 7.50002H22.6558C22.6892 7.50003 22.7221 7.49111 22.7509 7.47417C22.7797 7.45724 22.8035 7.4329 22.8197 7.40369C22.836 7.37448 22.8441 7.34145 22.8433 7.30803C22.8425 7.27461 22.8328 7.24201 22.8152 7.21361L20.0153 2.69674C19.9973 2.66766 19.9715 2.64409 19.941 2.62859C19.9105 2.61308 19.8763 2.60624 19.8421 2.6088C19.808 2.61136 19.7752 2.62323 19.7473 2.64311C19.7194 2.66299 19.6975 2.69013 19.6839 2.72158Z" fill="#F7E041"/>
<path d="M3.98446 2.69857L1.18556 7.21357C1.16792 7.24198 1.1582 7.27457 1.1574 7.30799C1.1566 7.34141 1.16475 7.37444 1.18101 7.40365C1.19726 7.43286 1.22103 7.4572 1.24985 7.47414C1.27868 7.49107 1.3115 7.5 1.34493 7.49998H6.07931C6.11033 7.49994 6.14087 7.49221 6.16817 7.47747C6.19547 7.46272 6.21869 7.44144 6.23574 7.41551C6.25279 7.38959 6.26314 7.35984 6.26586 7.32893C6.26858 7.29802 6.26359 7.26692 6.25134 7.23842L4.31259 2.72342C4.29872 2.69275 4.27686 2.66638 4.24929 2.64707C4.22171 2.62776 4.18946 2.61624 4.15589 2.61369C4.12233 2.61115 4.0887 2.61769 4.05854 2.63263C4.02838 2.64756 4.00279 2.67034 3.98446 2.69857Z" fill="#F7E041"/>
<path d="M18.4343 1.49994H12.5538C12.5368 1.49983 12.5202 1.50447 12.5057 1.51334C12.4912 1.5222 12.4795 1.53494 12.4719 1.5501C12.4643 1.56527 12.4611 1.58226 12.4627 1.59916C12.4642 1.61606 12.4704 1.63219 12.4807 1.64572L16.2269 6.63604C16.2365 6.64885 16.2493 6.65893 16.264 6.66523C16.2787 6.67154 16.2948 6.67386 16.3106 6.67196C16.3265 6.67005 16.3416 6.664 16.3544 6.6544C16.3672 6.6448 16.3772 6.632 16.3835 6.61729L18.356 2.01557L18.5154 1.62463C18.521 1.61121 18.5233 1.59663 18.522 1.58214C18.5208 1.56764 18.516 1.55367 18.5082 1.54141C18.5003 1.52916 18.4897 1.51898 18.477 1.51176C18.4644 1.50453 18.4502 1.50048 18.4357 1.49994H18.4343Z" fill="#F7E041"/>
<path d="M11.2029 21L7.01082 9.11766C6.99851 9.08315 6.97581 9.05331 6.94584 9.03224C6.91587 9.01117 6.88011 8.99991 6.84348 9H1.20441C1.17175 8.99991 1.13971 9.00899 1.11196 9.02622C1.0842 9.04345 1.06185 9.06812 1.04743 9.09744C1.03302 9.12675 1.02713 9.15953 1.03044 9.19202C1.03374 9.22452 1.04611 9.25544 1.06613 9.28125L11.1911 22.3973C11.2254 22.4417 11.2743 22.4725 11.3291 22.4843C11.384 22.496 11.4412 22.488 11.4907 22.4616C11.5404 22.4354 11.5791 22.3922 11.5997 22.3399C11.6202 22.2876 11.6213 22.2296 11.6027 22.1766L11.2029 21Z" fill="#F7E041"/>
<path d="M22.7952 9H17.1562C17.1197 8.99999 17.0842 9.01131 17.0545 9.03239C17.0247 9.05347 17.0023 9.08326 16.9902 9.11766L12.3871 22.1564C12.3678 22.2111 12.3686 22.271 12.3894 22.3252C12.4102 22.3794 12.4496 22.4244 12.5005 22.4522C12.5515 22.4798 12.6107 22.4884 12.6674 22.4765C12.7242 22.4645 12.7748 22.4328 12.8104 22.387L22.9335 9.28125C22.9535 9.25544 22.9659 9.22452 22.9692 9.19202C22.9725 9.15953 22.9666 9.12675 22.9522 9.09744C22.9378 9.06812 22.9155 9.04345 22.8877 9.02622C22.8599 9.00899 22.8279 8.99991 22.7952 9Z" fill="#F7E041"/>
<path d="M12.1499 3.69988L14.7749 7.20003C14.7958 7.22789 14.8085 7.26102 14.8117 7.2957C14.8148 7.33038 14.8082 7.36524 14.7926 7.39639C14.7771 7.42753 14.7531 7.45373 14.7235 7.47203C14.6939 7.49034 14.6597 7.50003 14.6249 7.50003H9.37493C9.34011 7.50003 9.30597 7.49034 9.27635 7.47203C9.24673 7.45373 9.22279 7.42753 9.20722 7.39639C9.19165 7.36524 9.18506 7.33038 9.18818 7.2957C9.19131 7.26102 9.20403 7.22789 9.22493 7.20003L11.8499 3.69988C11.8674 3.67659 11.89 3.65769 11.9161 3.64467C11.9421 3.63165 11.9708 3.62488 11.9999 3.62488C12.029 3.62488 12.0577 3.63165 12.0838 3.64467C12.1098 3.65769 12.1325 3.67659 12.1499 3.69988ZM11.8218 18.2457L8.64836 9.24988C8.6384 9.22161 8.63535 9.19137 8.63949 9.16168C8.64362 9.13199 8.65481 9.10373 8.67212 9.07926C8.68943 9.05479 8.71235 9.03483 8.73896 9.02104C8.76558 9.00726 8.79511 9.00005 8.82508 9.00003H15.1748C15.2047 9.00005 15.2343 9.00726 15.2609 9.02104C15.2875 9.03483 15.3104 9.05479 15.3277 9.07926C15.345 9.10373 15.3562 9.13199 15.3604 9.16168C15.3645 9.19137 15.3615 9.22161 15.3515 9.24988L12.1766 18.2457C12.1637 18.2822 12.1398 18.3138 12.1081 18.3361C12.0765 18.3585 12.0387 18.3705 11.9999 18.3705C11.9612 18.3705 11.9234 18.3585 11.8917 18.3361C11.8601 18.3138 11.8362 18.2822 11.8232 18.2457H11.8218Z" fill="#F7E041"/>
</svg>
