<svg width="24" height="24" viewBox="0 0 24 24" fill="none" xmlns="http://www.w3.org/2000/svg">
<path fill-rule="evenodd" clip-rule="evenodd" d="M22 9C22 6.79087 20.2092 5 18 5C18 3.34315 16.6568 2 15 2H4.5C3.11929 2 2 3.11929 2 4.5C2 4.60388 2.00634 4.70628 2.01864 4.80683C2.00641 4.86933 2 4.93392 2 5V18C2 20.2092 3.79087 22 6 22H18C20.2092 22 22 20.2092 22 18V9ZM4.50097 4.99993H16.0009C16.0009 4.44765 15.5532 3.99993 15.0009 3.99993H4.50097C4.22484 3.99993 4.00097 4.2238 4.00097 4.49993C4.00097 4.77608 4.22484 4.99993 4.50097 4.99993ZM17.0009 17H20.0009V18C20.0009 19.1045 19.1056 20 18.0009 20H6.00097C4.89641 20 4.00097 19.1045 4.00097 18V6.94995C4.16253 6.98275 4.32975 6.99996 4.50097 6.99996H18.0009C19.1056 6.99996 20.0009 7.89539 20.0009 8.99996V11H17.0009C15.3441 11 14.001 12.3431 14.001 14C14.001 15.6568 15.3441 17 17.0009 17ZM20.0009 12.9999V15H17.0009C16.4487 15 16.0009 14.5522 16.0009 13.9999C16.0009 13.4477 16.4487 12.9999 17.0009 12.9999H20.0009Z" fill="#8736CB"/>
</svg>
