<svg width="27" height="27" viewBox="0 0 27 27" fill="none" xmlns="http://www.w3.org/2000/svg">
<path d="M13.5 0C9.91966 0.000223049 6.48599 1.42261 3.9543 3.9543C1.42261 6.486 0.000223049 9.91965 0 13.5C0.000223049 17.0804 1.42261 20.514 3.9543 23.0457C6.48599 25.5774 9.91966 26.9998 13.5 27C17.0804 26.9998 20.514 25.5774 23.0457 23.0457C25.5774 20.514 26.9998 17.0804 27 13.5C26.9998 9.91963 25.5774 6.48596 23.0457 3.95425C20.514 1.42255 17.0804 0.000178443 13.5 0ZM14.0921 17.9449L15.1151 16.924L16.136 17.9449H14.0921ZM20.471 18.0862C19.5107 18.9256 18.4292 18.9074 17.4244 18.0983C16.8454 17.6301 16.3348 17.0733 15.7962 16.5549C15.5824 16.3491 15.3725 16.1372 15.1364 15.9052C14.9287 16.1089 14.7188 16.3128 14.513 16.5206C13.821 17.2126 13.1336 17.9107 12.4328 18.5967C12.3445 18.6793 12.2306 18.7292 12.11 18.738C11.6863 18.7549 11.2627 18.7441 10.8329 18.7441L15.1344 14.4668L15.8386 15.1346L15.8346 15.1386C16.0968 15.3868 16.3168 15.5947 16.5347 15.8024C17.037 16.2787 17.5193 16.7789 18.044 17.2289C18.2862 17.4523 18.6028 17.5777 18.9323 17.5808C19.2618 17.5839 19.5807 17.4645 19.8271 17.2458C20.4061 16.7614 20.9409 16.2228 21.4757 15.6862C21.8756 15.3114 22.2434 14.9038 22.5753 14.4676C22.8083 14.1682 22.9264 13.7952 22.9082 13.4163C22.8901 13.0373 22.7369 12.6773 22.4764 12.4015C21.7016 11.5461 20.8623 10.7511 20.0492 9.93188C20.016 9.90079 19.9809 9.87179 19.9442 9.84508C19.2562 9.29837 18.55 9.3024 17.8942 9.88545C17.4786 10.2567 17.0891 10.6562 16.6938 11.0497C15.6103 12.1312 14.5268 13.214 13.4433 14.298C12.2973 15.4461 11.1499 16.5921 10.0012 17.7361C9.62349 18.1243 9.1587 18.4168 8.64535 18.5895C8.32741 18.6951 7.98842 18.721 7.65812 18.6651C7.32782 18.6092 7.01629 18.4731 6.75084 18.2687C6.28589 17.9152 5.84633 17.5296 5.43536 17.1145C4.84828 16.5456 4.26305 15.9685 3.71431 15.3612C2.73981 14.2797 2.69338 12.8653 3.64164 11.7537C4.28929 10.995 5.01566 10.301 5.73396 9.60688C6.10237 9.22431 6.51955 8.89191 6.97475 8.61825C8.03201 8.04126 8.95403 8.33379 9.87823 9.169C10.5037 9.73792 11.0807 10.3595 11.6821 10.9567C11.7325 11.0036 11.7858 11.0474 11.8415 11.0879C12.7373 10.2002 13.6171 9.33655 14.4886 8.46366C14.5509 8.39458 14.6277 8.34013 14.7135 8.30421C14.7993 8.26829 14.892 8.2518 14.9849 8.2559C15.3682 8.26196 15.7496 8.25792 16.2055 8.25792C13.4393 11.006 10.7276 13.6975 8.00374 16.4031C7.7758 16.1752 7.53274 15.935 7.25921 15.6566C8.54038 14.3895 9.80739 13.1345 11.115 11.8412C10.7175 11.4543 10.3341 11.0724 9.94264 10.7032C9.59561 10.3763 9.25666 10.0353 8.87934 9.74432C8.65836 9.5545 8.37938 9.44551 8.08826 9.43523C7.79714 9.42496 7.51117 9.51403 7.27737 9.68779C7.01578 9.86193 6.77243 10.062 6.55099 10.285C5.85692 10.9851 5.15074 11.6792 4.49703 12.4177C4.2246 12.7152 4.07298 13.1037 4.07186 13.5071C4.07074 13.9105 4.2202 14.2998 4.49097 14.5988C5.05586 15.2485 5.67945 15.8497 6.28269 16.463C6.52649 16.7156 6.78451 16.9541 7.05549 17.1773C7.71929 17.7156 8.44565 17.7038 9.08321 17.1288C9.57761 16.6829 10.0456 16.2088 10.5178 15.7367C11.8191 14.4393 13.1124 13.134 14.4139 11.8366C15.34 10.9126 16.2561 9.98235 17.2084 9.08456C17.7131 8.60833 18.3202 8.29392 19.0545 8.33598C19.6093 8.35967 20.1374 8.58077 20.5435 8.9594C21.4797 9.84306 22.434 10.7208 23.2795 11.6873C24.3125 12.8675 24.2944 14.2175 23.2472 15.3694C22.3746 16.3274 21.4477 17.2345 20.471 18.0862Z" fill="#8736CB"/>
</svg>
