<svg width="18" height="16" viewBox="0 0 18 16" fill="none" xmlns="http://www.w3.org/2000/svg">
<path d="M9 0C4.0275 0 0 3.67299 0 8.20301C0 11.828 2.5785 14.902 6.15375 15.9858C6.60375 16.0631 6.76875 15.8092 6.76875 15.5914C6.76875 15.3966 6.76125 14.8805 6.7575 14.1967C4.254 14.6913 3.726 13.0962 3.726 13.0962C3.3165 12.1494 2.72475 11.8962 2.72475 11.8962C1.9095 11.3877 2.78775 11.3981 2.78775 11.3981C3.6915 11.4551 4.16625 12.2433 4.16625 12.2433C4.96875 13.4975 6.273 13.1351 6.7875 12.9257C6.8685 12.3949 7.10025 12.0339 7.3575 11.8287C5.35875 11.6235 3.258 10.9181 3.258 7.77519C3.258 6.8799 3.60675 6.14808 4.18425 5.57418C4.083 5.36688 3.77925 4.5328 4.263 3.40308C4.263 3.40308 5.01675 3.18326 6.738 4.24411C7.458 4.06185 8.223 3.97142 8.988 3.96725C9.753 3.97142 10.518 4.06185 11.238 4.24411C12.948 3.18326 13.7017 3.40308 13.7017 3.40308C14.1855 4.5328 13.8818 5.36688 13.7917 5.57418C14.3655 6.14808 14.7142 6.8799 14.7142 7.77519C14.7142 10.9264 12.6105 11.62 10.608 11.8217C10.923 12.068 11.2155 12.5709 11.2155 13.3396C11.2155 14.4374 11.2043 15.3194 11.2043 15.5859C11.2043 15.8008 11.3617 16.0575 11.823 15.9754C15.4237 14.8986 18 11.8224 18 8.20301C18 3.67299 13.9703 0 9 0Z" fill="white"/>
</svg>
