<?xml version="1.0" encoding="UTF-8" standalone="no"?>
<!-- Created with Inkscape (http://www.inkscape.org/) -->

<svg
   width="210mm"
   height="297mm"
   viewBox="0 0 210 297"
   version="1.1"
   id="svg1402"
   inkscape:version="1.1 (c4e8f9e, 2021-05-24)"
   sodipodi:docname="yfiag.svg"
   xmlns:inkscape="http://www.inkscape.org/namespaces/inkscape"
   xmlns:sodipodi="http://sodipodi.sourceforge.net/DTD/sodipodi-0.dtd"
   xmlns="http://www.w3.org/2000/svg"
   xmlns:svg="http://www.w3.org/2000/svg">
  <sodipodi:namedview
     id="namedview1404"
     pagecolor="#ffffff"
     bordercolor="#666666"
     borderopacity="1.0"
     inkscape:pageshadow="2"
     inkscape:pageopacity="0.0"
     inkscape:pagecheckerboard="0"
     inkscape:document-units="mm"
     showgrid="false"
     inkscape:zoom="0.59982893"
     inkscape:cx="416.7855"
     inkscape:cy="132.53779"
     inkscape:window-width="1315"
     inkscape:window-height="1081"
     inkscape:window-x="507"
     inkscape:window-y="112"
     inkscape:window-maximized="0"
     inkscape:current-layer="layer1" />
  <defs
     id="defs1399" />
  <g
     inkscape:label="Vrstva 1"
     inkscape:groupmode="layer"
     id="layer1">
    <path
       id="XMLID_275_"
       d="M 103.23272,0.55199259 A 102.84287,102.84287 0 0 0 0.39625129,103.38847 102.84287,102.84287 0 0 0 103.23272,206.22493 102.84287,102.84287 0 0 0 206.06919,103.38847 102.8416,102.84159 0 0 0 103.23272,0.55199259 Z m 4.5106,136.69539741 7.79231,-7.7769 7.77693,7.7769 z m 48.59142,1.07639 c -7.31562,6.39428 -15.55387,6.25591 -23.20779,0.0925 -4.41064,-3.56617 -8.29975,-7.80766 -12.40286,-11.75702 -1.62868,-1.56714 -3.22789,-3.18176 -5.02572,-4.94883 -1.58255,1.55179 -3.18177,3.1049 -4.74894,4.68745 -5.27176,5.27173 -10.50764,10.58962 -15.846034,15.81524 a 4.0287826,4.0287824 0 0 1 -2.459042,1.07639 c -3.227899,0.12835 -6.454513,0.0484 -9.728538,0.0484 l 32.767174,-32.58264 5.36402,5.0872 -0.0305,0.0291 c 1.99773,1.89009 3.67383,3.47395 5.33327,5.0565 3.82632,3.62768 7.50015,7.43866 11.49689,10.86646 a 10.123213,10.123213 0 0 0 13.58305,0.12834 c 4.41065,-3.68918 8.48428,-7.79231 12.55791,-11.88003 a 74.725972,74.72597 0 0 0 8.37664,-9.28259 12.100443,12.100443 0 0 0 -0.75348,-15.738384 c -5.90221,-6.516036 -12.29521,-12.57202 -18.4896,-18.812528 a 8.2882207,8.2882205 0 0 0 -0.7996,-0.661188 c -5.24101,-4.164633 -10.62041,-4.133879 -15.61538,0.307541 -3.16639,2.828066 -6.13288,5.871459 -9.14421,8.868697 q -12.38107,12.358 -24.76087,24.744192 -13.094821,13.11789 -26.220399,26.18962 a 25.95515,25.955149 0 0 1 -10.328242,6.50069 15.598718,15.598718 0 0 1 -14.431343,-2.44367 95.128733,95.12873 0 0 1 -10.0207,-8.79183 C 37.328281,126.58963 32.870225,122.19306 28.690234,117.56716 21.266973,109.3289 20.913301,98.554709 28.136661,90.087122 33.070126,84.307925 38.603296,79.020792 44.074958,73.73366 a 46.088811,46.08881 0 0 1 9.451745,-7.53092 c 8.05372,-4.395264 15.077183,-2.166878 22.117297,4.195388 4.764318,4.333756 9.159588,9.068574 13.740665,13.617609 a 13.155052,13.155051 0 0 0 1.214785,0.999531 C 97.423008,78.2532 104.12483,71.674397 110.76386,65.025126 a 4.8040413,4.8040411 0 0 1 3.78019,-1.582551 c 2.92036,0.04843 5.82533,0.01453 9.29798,0.01453 -21.07166,20.933299 -41.72814,41.435995 -62.476886,62.046345 -1.736321,-1.73632 -3.587973,-3.56621 -5.671558,-5.68693 9.759287,-9.65169 19.410939,-19.21233 29.371411,-29.063899 -3.027992,-2.947257 -5.948349,-5.856059 -8.93021,-8.668772 -2.643571,-2.48982 -5.22563,-5.087255 -8.099851,-7.304115 a 9.7772299,9.7772296 0 0 0 -12.202957,-0.430557 35.609364,35.609363 0 0 0 -5.53317,4.549035 C 45.011673,84.2315 39.632274,89.518632 34.652677,95.144059 a 12.338787,12.338787 0 0 0 -0.04601,16.614891 c 4.303008,4.94884 9.053232,9.52863 13.648397,14.20068 a 70.267911,70.267909 0 0 0 5.886841,5.4409 c 5.056482,4.10056 10.589652,4.01082 15.446232,-0.36904 3.76609,-3.39705 7.330999,-7.0081 10.927942,-10.60502 9.913062,-9.88233 19.764611,-19.82616 29.678961,-29.70843 7.05421,-7.038854 14.03282,-14.125075 21.28693,-20.964053 3.84426,-3.627672 8.4689,-6.022663 14.0623,-5.702288 a 17.746377,17.746376 0 0 1 11.34312,4.748912 c 7.1311,6.731314 14.4006,13.417781 20.84101,20.779529 7.8692,8.990406 7.7308,19.27384 -0.24604,28.04897 a 257.69344,257.69343 0 0 1 -21.14726,20.69492 z"
       fill="#8736cb"
       style="stroke-width:1.28142" />
  </g>
</svg>
